<svg width="48" height="48" viewBox="0 0 48 48" fill="none" xmlns="http://www.w3.org/2000/svg">
<path d="M41.426 16.256L40.934 17.388C40.8571 17.5723 40.7274 17.7298 40.5612 17.8405C40.395 17.9513 40.1997 18.0104 40 18.0104C39.8003 18.0104 39.605 17.9513 39.4388 17.8405C39.2726 17.7298 39.1429 17.5723 39.066 17.388L38.574 16.256C37.709 14.2534 36.1248 12.6478 34.134 11.756L32.616 11.078C32.4319 10.9933 32.2758 10.8575 32.1665 10.6869C32.0571 10.5162 31.999 10.3177 31.999 10.115C31.999 9.91228 32.0571 9.71382 32.1665 9.54314C32.2758 9.37245 32.4319 9.23671 32.616 9.152L34.05 8.514C36.0908 7.59675 37.7021 5.93176 38.552 3.862L39.058 2.64C39.1323 2.4507 39.262 2.28819 39.43 2.17365C39.598 2.0591 39.7967 1.99783 40 1.99783C40.2034 1.99783 40.402 2.0591 40.57 2.17365C40.7381 2.28819 40.8677 2.4507 40.942 2.64L41.448 3.86C42.297 5.93015 43.9076 7.59586 45.948 8.514L47.384 9.154C47.5676 9.23895 47.7231 9.37468 47.832 9.54514C47.941 9.71561 47.9989 9.91369 47.9989 10.116C47.9989 10.3183 47.941 10.5164 47.832 10.6868C47.7231 10.8573 47.5676 10.993 47.384 11.078L45.864 11.754C43.8736 12.6467 42.2902 14.253 41.426 16.256ZM24 4C12.954 4 4.00002 12.954 4.00002 24C3.99678 26.6269 4.51263 29.2286 5.51793 31.6555C6.52323 34.0824 7.99818 36.2868 9.85802 38.142L4.00002 44H24C35.046 44 44 35.046 44 24C44 23.1947 43.9533 22.4013 43.86 21.62L39.888 22.09C39.9627 22.7167 40 23.3533 40 24C40 28.2435 38.3143 32.3131 35.3137 35.3137C32.3131 38.3143 28.2435 40 24 40H13.656L15.516 38.142L12.686 35.314C11.1976 33.8302 10.0174 32.0667 9.21317 30.125C8.40895 28.1832 7.99666 26.1017 8.00002 24C7.99939 21.5578 8.55786 19.1478 9.63261 16.9548C10.7074 14.7618 12.2699 12.8439 14.2004 11.3481C16.131 9.85226 18.3784 8.81826 20.7703 8.32528C23.1623 7.83231 25.6353 7.89344 28 8.50399L28.996 4.63C27.396 4.218 25.722 4 24 4ZM18 18H14V30H18V18ZM34 18H30V30H34V18ZM26 12H22V36H26V12Z" fill="#1E1E1E"/>
</svg>
