<svg width="48" height="48" viewBox="0 0 48 48" fill="none" xmlns="http://www.w3.org/2000/svg">
<path fill-rule="evenodd" clip-rule="evenodd" d="M6.928 41.072C9.86 44 14.572 44 24 44C33.428 44 38.142 44 41.07 41.07C44 38.144 44 33.428 44 24C44 14.572 44 9.858 41.07 6.928C38.144 4 33.428 4 24 4C14.572 4 9.858 4 6.928 6.928C4 9.86 4 14.572 4 24C4 33.428 4 38.144 6.928 41.072ZM37.5 32C37.5 32.3978 37.342 32.7794 37.0607 33.0607C36.7794 33.342 36.3978 33.5 36 33.5H12C11.6022 33.5 11.2206 33.342 10.9393 33.0607C10.658 32.7794 10.5 32.3978 10.5 32C10.5 31.6022 10.658 31.2206 10.9393 30.9393C11.2206 30.658 11.6022 30.5 12 30.5H36C36.3978 30.5 36.7794 30.658 37.0607 30.9393C37.342 31.2206 37.5 31.6022 37.5 32ZM36 25.5C36.3978 25.5 36.7794 25.342 37.0607 25.0607C37.342 24.7794 37.5 24.3978 37.5 24C37.5 23.6022 37.342 23.2206 37.0607 22.9393C36.7794 22.658 36.3978 22.5 36 22.5H12C11.6022 22.5 11.2206 22.658 10.9393 22.9393C10.658 23.2206 10.5 23.6022 10.5 24C10.5 24.3978 10.658 24.7794 10.9393 25.0607C11.2206 25.342 11.6022 25.5 12 25.5H36ZM37.5 16C37.5 16.3978 37.342 16.7794 37.0607 17.0607C36.7794 17.342 36.3978 17.5 36 17.5H12C11.6022 17.5 11.2206 17.342 10.9393 17.0607C10.658 16.7794 10.5 16.3978 10.5 16C10.5 15.6022 10.658 15.2206 10.9393 14.9393C11.2206 14.658 11.6022 14.5 12 14.5H36C36.3978 14.5 36.7794 14.658 37.0607 14.9393C37.342 15.2206 37.5 15.6022 37.5 16Z" fill="white"/>
</svg>
