<svg width="655" height="275" viewBox="0 0 655 275" fill="none" xmlns="http://www.w3.org/2000/svg">
<path d="M62.6953 218.707C62.6953 219.293 62.4023 219.781 61.8164 220.172C61.2305 220.562 60.5225 220.88 59.6924 221.124C58.9111 221.368 58.1055 221.539 57.2754 221.637C56.4941 221.734 55.9082 221.783 55.5176 221.783C54.541 221.783 53.7354 221.686 53.1006 221.49C52.5146 221.344 51.8066 221.051 50.9766 220.611C50.7324 220.465 50.1465 219.854 49.2188 218.78C48.3398 217.657 47.2168 216.217 45.8496 214.459C44.5312 212.701 43.0176 210.699 41.3086 208.453C39.6484 206.207 37.915 203.912 36.1084 201.568C34.3506 199.176 32.5928 196.808 30.835 194.464C29.126 192.071 27.5391 189.898 26.0742 187.945C24.6094 185.943 23.3398 184.21 22.2656 182.745C21.2402 181.231 20.5078 180.182 20.0684 179.596L19.6289 179.742C19.9219 185.553 20.2881 191.363 20.7275 197.174C21.2158 202.936 22.0215 208.648 23.1445 214.312C23.291 214.898 23.4375 215.509 23.584 216.144C23.7793 216.778 23.877 217.438 23.877 218.121C23.877 219.244 23.5107 219.952 22.7783 220.245C22.0459 220.587 21.2402 220.758 20.3613 220.758C19.873 220.758 19.2871 220.733 18.6035 220.685C17.9199 220.636 17.2119 220.538 16.4795 220.392C15.7471 220.245 15.0635 220.05 14.4287 219.806C13.8428 219.61 13.3789 219.342 13.0371 219C12.3535 218.414 11.9141 217.804 11.7188 217.169C11.5723 216.534 11.4258 215.777 11.2793 214.898C9.86328 205.084 8.95996 195.245 8.56934 185.382C8.22754 175.47 8.05664 165.582 8.05664 155.719C8.05664 151.422 8.08105 147.198 8.12988 143.048C8.17871 138.897 8.25195 134.674 8.34961 130.377C7.76367 130.328 7.20215 130.133 6.66504 129.791C6.17676 129.449 5.7373 129.034 5.34668 128.546C4.95605 128.009 4.63867 127.472 4.39453 126.935C4.19922 126.349 4.10156 125.787 4.10156 125.25C4.10156 124.713 4.22363 124.176 4.46777 123.639C4.76074 123.102 5.10254 122.613 5.49316 122.174C5.93262 121.734 6.39648 121.319 6.88477 120.929C7.37305 120.538 7.8125 120.221 8.20312 119.977V118.658C8.20312 118.17 8.20312 117.608 8.20312 116.974C8.25195 116.339 8.34961 115.753 8.49609 115.216C8.69141 114.63 8.98438 114.166 9.375 113.824C9.76562 113.434 10.3516 113.238 11.1328 113.238C12.1582 113.238 13.1836 113.409 14.209 113.751C15.2344 114.093 16.1133 114.703 16.8457 115.582C20.5078 114.117 24.3652 113.385 28.418 113.385C31.9824 113.385 35.2295 114.093 38.1592 115.509C41.0889 116.925 43.5791 118.829 45.6299 121.222C47.7295 123.614 49.3408 126.373 50.4639 129.498C51.5869 132.623 52.1484 135.895 52.1484 139.312C52.1484 142.975 51.4648 146.539 50.0977 150.006C48.7305 153.424 46.9482 156.671 44.751 159.747C42.5537 162.823 40.0391 165.655 37.207 168.243C34.4238 170.782 31.5918 173.004 28.7109 174.908C33.3008 181.012 37.9395 187.066 42.627 193.072C47.3633 199.029 52.1973 204.986 57.1289 210.943C57.4219 211.285 57.8613 211.798 58.4473 212.481C59.082 213.165 59.7168 213.922 60.3516 214.752C60.9863 215.533 61.5234 216.29 61.9629 217.022C62.4512 217.755 62.6953 218.316 62.6953 218.707ZM41.3086 138.141C41.3086 136.334 40.9912 134.454 40.3564 132.501C39.7217 130.548 38.8184 128.79 37.6465 127.228C36.4746 125.616 35.0586 124.298 33.3984 123.272C31.7871 122.247 29.9805 121.734 27.9785 121.734C26.3672 121.734 24.7559 121.979 23.1445 122.467C21.582 122.906 20.0684 123.492 18.6035 124.225C18.7012 131.5 18.7744 138.775 18.8232 146.051C18.9209 153.326 19.043 160.602 19.1895 167.877L20.5078 168.023C23.0469 166.607 25.5371 164.825 27.9785 162.677C30.4688 160.528 32.6904 158.136 34.6436 155.499C36.6455 152.862 38.2568 150.079 39.4775 147.149C40.6982 144.171 41.3086 141.168 41.3086 138.141ZM87.5977 205.597C87.5977 207.062 87.1826 208.575 86.3525 210.138C85.5713 211.7 84.5459 213.141 83.2764 214.459C82.0068 215.729 80.542 216.778 78.8818 217.608C77.2705 218.438 75.6592 218.854 74.0479 218.854C71.7529 218.854 69.7754 218.414 68.1152 217.535C66.4551 216.607 65.0146 215.387 63.7939 213.873C62.5732 212.311 61.5723 210.553 60.791 208.6C60.0586 206.646 59.4727 204.645 59.0332 202.594C58.5938 200.494 58.2764 198.419 58.0811 196.368C57.9346 194.269 57.8613 192.364 57.8613 190.655C57.8613 189.19 57.9346 187.457 58.0811 185.455C58.2764 183.453 58.5693 181.378 58.96 179.229C59.3994 177.081 59.9854 174.957 60.7178 172.857C61.4502 170.758 62.3535 168.878 63.4277 167.218C64.5508 165.558 65.8691 164.215 67.3828 163.189C68.9453 162.164 70.7275 161.651 72.7295 161.651C74.292 161.651 75.6836 161.969 76.9043 162.604C78.1738 163.238 79.2236 164.093 80.0537 165.167C80.9326 166.192 81.5918 167.389 82.0312 168.756C82.5195 170.123 82.7637 171.539 82.7637 173.004C82.7637 174.908 82.3242 176.983 81.4453 179.229C80.5664 181.476 79.4189 183.648 78.0029 185.748C76.6357 187.848 75.0732 189.752 73.3154 191.461C71.6064 193.121 69.8975 194.391 68.1885 195.27C68.2861 196.148 68.4814 197.442 68.7744 199.151C69.0674 200.812 69.458 202.472 69.9463 204.132C70.4834 205.792 71.0938 207.232 71.7773 208.453C72.5098 209.674 73.3643 210.284 74.3408 210.284C74.8291 210.284 75.2441 210.138 75.5859 209.845C75.9766 209.552 76.3184 209.161 76.6113 208.673C76.9043 208.185 77.1484 207.647 77.3438 207.062C77.5879 206.476 77.8076 205.914 78.0029 205.377L78.4424 204.352C78.54 204.205 78.5889 204.107 78.5889 204.059C78.6377 204.01 78.6865 203.937 78.7354 203.839C79.0771 203.204 79.3945 202.618 79.6875 202.081C80.0293 201.544 80.4932 201.08 81.0791 200.689H81.0059C81.2012 200.494 81.3965 200.396 81.5918 200.396C81.8359 200.348 82.0557 200.323 82.251 200.323C82.7881 200.323 83.374 200.494 84.0088 200.836C84.6436 201.178 85.2295 201.617 85.7666 202.154C86.3037 202.643 86.7432 203.204 87.085 203.839C87.4268 204.425 87.5977 205.011 87.5977 205.597ZM73.0957 173.297C73.0957 172.809 73.0713 172.296 73.0225 171.759C72.9736 171.222 72.8516 170.758 72.6562 170.367C71.9727 171.197 71.3623 172.198 70.8252 173.37C70.3369 174.493 69.9219 175.689 69.5801 176.959C69.2383 178.18 68.9453 179.425 68.7012 180.694C68.5059 181.964 68.3594 183.136 68.2617 184.21C69.5312 182.696 70.6543 180.987 71.6309 179.083C72.6074 177.13 73.0957 175.201 73.0957 173.297ZM119.971 202.594C119.971 203.619 119.8 204.669 119.458 205.743C119.116 206.817 118.726 207.843 118.286 208.819C117.7 210.235 116.992 211.627 116.162 212.994C115.332 214.312 114.38 215.509 113.306 216.583C112.231 217.608 111.011 218.438 109.644 219.073C108.276 219.708 106.738 220.025 105.029 220.025C102.002 220.025 99.4873 219.269 97.4854 217.755C95.4834 216.241 93.8965 214.337 92.7246 212.042C91.5527 209.747 90.7227 207.232 90.2344 204.498C89.7949 201.764 89.5752 199.176 89.5752 196.734C89.5752 194.928 89.6484 192.804 89.7949 190.362C89.9414 187.872 90.21 185.309 90.6006 182.672C91.04 180.035 91.6504 177.423 92.4316 174.835C93.2617 172.247 94.3115 169.952 95.5811 167.95C96.8506 165.899 98.3887 164.239 100.195 162.97C102.051 161.7 104.248 161.065 106.787 161.065C107.324 161.065 108.105 161.163 109.131 161.358C110.156 161.554 111.157 161.847 112.134 162.237C113.159 162.579 114.038 163.067 114.771 163.702C115.552 164.288 115.942 164.972 115.942 165.753C115.942 166.485 115.601 167.047 114.917 167.438C114.282 167.828 113.501 168.121 112.573 168.316C111.694 168.463 110.767 168.561 109.79 168.609C108.862 168.609 108.105 168.609 107.52 168.609H106.201C104.834 169.83 103.711 171.637 102.832 174.029C101.953 176.373 101.27 178.888 100.781 181.573C100.293 184.259 99.9512 186.92 99.7559 189.557C99.5605 192.145 99.4629 194.269 99.4629 195.929C99.4629 198.272 99.6338 200.592 99.9756 202.887C100.366 205.133 101.123 207.257 102.246 209.259C102.49 209.698 102.832 210.211 103.271 210.797C103.76 211.334 104.297 211.603 104.883 211.603C105.322 211.603 105.762 211.236 106.201 210.504C106.689 209.771 107.129 208.917 107.52 207.94C107.91 206.964 108.228 206.012 108.472 205.084C108.716 204.156 108.887 203.473 108.984 203.033C109.033 202.838 109.058 202.618 109.058 202.374C109.058 202.13 109.058 201.886 109.058 201.642C109.058 201.202 109.058 200.787 109.058 200.396C109.106 199.957 109.18 199.615 109.277 199.371C109.619 198.541 110.059 197.979 110.596 197.687C111.182 197.394 111.89 197.247 112.72 197.247C113.452 197.247 114.233 197.345 115.063 197.54C115.894 197.735 116.675 198.053 117.407 198.492C118.14 198.932 118.75 199.493 119.238 200.177C119.727 200.86 119.971 201.666 119.971 202.594ZM132.568 157.403C132.568 158.233 132.373 158.844 131.982 159.234C131.641 159.576 130.981 159.747 130.005 159.747C129.565 159.747 128.882 159.698 127.954 159.601C127.026 159.454 126.074 159.259 125.098 159.015C124.17 158.771 123.34 158.429 122.607 157.989C121.924 157.55 121.582 157.013 121.582 156.378C121.582 156.183 121.655 155.646 121.802 154.767C121.948 153.839 122.119 152.862 122.314 151.837C122.559 150.812 122.754 149.884 122.9 149.054C123.096 148.224 123.242 147.76 123.34 147.662V147.735C123.584 147.345 123.877 147.101 124.219 147.003C124.561 146.905 124.902 146.856 125.244 146.856C125.684 146.856 126.245 146.93 126.929 147.076C127.661 147.174 128.369 147.345 129.053 147.589C129.785 147.784 130.444 148.053 131.03 148.395C131.616 148.736 131.982 149.103 132.129 149.493C132.275 149.884 132.349 150.421 132.349 151.104C132.397 151.739 132.397 152.325 132.349 152.862C132.349 153.058 132.324 153.302 132.275 153.595C132.275 153.839 132.275 154.034 132.275 154.181C132.275 154.425 132.275 154.669 132.275 154.913C132.324 155.157 132.373 155.401 132.422 155.646C132.471 155.89 132.495 156.158 132.495 156.451C132.544 156.744 132.568 157.062 132.568 157.403ZM135.278 215.777C135.278 216.9 135.01 217.706 134.473 218.194C133.984 218.634 133.179 218.854 132.056 218.854C131.47 218.854 130.811 218.78 130.078 218.634C129.395 218.487 128.711 218.292 128.027 218.048C127.344 217.755 126.709 217.413 126.123 217.022C125.537 216.632 125.098 216.192 124.805 215.704C124.609 215.411 124.438 214.508 124.292 212.994C124.146 211.48 124.023 209.601 123.926 207.354C123.877 205.108 123.804 202.594 123.706 199.811C123.657 197.027 123.608 194.22 123.56 191.388C123.56 188.556 123.56 185.797 123.56 183.111C123.56 180.426 123.56 178.082 123.56 176.08V170.44C123.56 169.952 123.56 169.464 123.56 168.976C123.608 168.487 123.706 168.072 123.853 167.73C124.048 167.34 124.316 167.022 124.658 166.778C125.049 166.534 125.586 166.412 126.27 166.412C128.418 166.412 129.98 167.022 130.957 168.243C131.982 169.415 132.617 171.002 132.861 173.004C133.105 175.982 133.276 178.961 133.374 181.939C133.521 184.869 133.643 187.848 133.74 190.875C133.838 193.609 133.911 196.319 133.96 199.005C134.058 201.642 134.229 204.278 134.473 206.915C134.521 207.452 134.57 207.965 134.619 208.453C134.668 208.941 134.741 209.43 134.839 209.918C134.937 210.895 135.034 211.871 135.132 212.848C135.229 213.775 135.278 214.752 135.278 215.777ZM151.978 199.957C151.978 202.301 151.953 204.449 151.904 206.402C151.904 208.355 151.953 210.504 152.051 212.848L153.369 211.896L154.175 211.383C156.567 209.479 158.643 207.159 160.4 204.425C162.207 201.642 163.696 198.688 164.868 195.562C166.04 192.438 166.895 189.239 167.432 185.968C168.018 182.647 168.311 179.498 168.311 176.52C168.311 175.934 168.286 175.128 168.237 174.103C168.237 173.028 168.14 171.979 167.944 170.953C167.749 169.928 167.456 169.049 167.065 168.316C166.675 167.535 166.113 167.145 165.381 167.145C164.209 167.145 163.013 167.853 161.792 169.269C160.571 170.685 159.424 172.369 158.35 174.322C157.324 176.275 156.396 178.253 155.566 180.255C154.736 182.208 154.126 183.746 153.735 184.869C153.735 184.918 153.711 184.942 153.662 184.942C153.662 184.942 153.662 184.967 153.662 185.016V185.089C153.369 185.772 153.052 186.505 152.71 187.286C152.417 188.067 152.222 188.8 152.124 189.483C152.026 190.167 151.953 190.948 151.904 191.827C151.855 192.657 151.831 193.536 151.831 194.464C151.831 194.952 151.831 195.44 151.831 195.929C151.88 196.368 151.904 196.783 151.904 197.174C151.904 197.711 151.904 198.224 151.904 198.712C151.953 199.151 151.978 199.566 151.978 199.957ZM156.006 266.9C156.006 267.975 155.713 268.707 155.127 269.098C154.541 269.488 153.76 269.684 152.783 269.684C151.611 269.684 150.317 269.488 148.901 269.098C147.485 268.756 146.362 268.097 145.532 267.12C145.288 266.778 145.044 265.777 144.8 264.117C144.604 262.457 144.409 260.504 144.214 258.258C144.019 256.061 143.848 253.766 143.701 251.373C143.555 249.029 143.408 246.954 143.262 245.147L142.969 241.266C142.383 230.816 142.09 220.367 142.09 209.918C142.09 203.814 142.188 197.833 142.383 191.974C142.627 186.065 142.871 180.084 143.115 174.029L143.408 166.339C143.408 165.558 143.408 164.801 143.408 164.068C143.457 163.287 143.555 162.53 143.701 161.798C143.945 161.163 144.238 160.675 144.58 160.333C144.971 159.942 145.581 159.747 146.411 159.747C148.511 159.747 150.049 160.382 151.025 161.651C152.002 162.872 152.563 164.386 152.71 166.192C154.272 164.044 156.128 162.335 158.276 161.065C160.474 159.796 162.988 159.161 165.82 159.161C168.213 159.161 170.215 159.698 171.826 160.772C173.486 161.847 174.805 163.238 175.781 164.947C176.758 166.607 177.441 168.487 177.832 170.587C178.271 172.638 178.491 174.664 178.491 176.666C178.491 180.523 178.149 184.381 177.466 188.238C176.782 192.047 175.708 195.758 174.243 199.371C172.827 202.936 171.021 206.329 168.823 209.552C166.626 212.726 164.038 215.558 161.06 218.048C160.669 218.39 160.205 218.756 159.668 219.146C159.131 219.537 158.569 219.903 157.983 220.245C157.397 220.587 156.787 220.88 156.152 221.124C155.566 221.368 155.029 221.49 154.541 221.49C154.004 221.49 153.54 221.368 153.149 221.124C152.759 220.88 152.417 220.587 152.124 220.245C152.222 223.614 152.344 227.105 152.49 230.719C152.686 234.332 152.905 237.945 153.149 241.559C153.394 245.221 153.687 248.834 154.028 252.398C154.419 255.963 154.883 259.405 155.42 262.726C155.566 263.36 155.688 264.02 155.786 264.703C155.933 265.436 156.006 266.168 156.006 266.9ZM211.23 205.597C211.23 207.062 210.815 208.575 209.985 210.138C209.204 211.7 208.179 213.141 206.909 214.459C205.64 215.729 204.175 216.778 202.515 217.608C200.903 218.438 199.292 218.854 197.681 218.854C195.386 218.854 193.408 218.414 191.748 217.535C190.088 216.607 188.647 215.387 187.427 213.873C186.206 212.311 185.205 210.553 184.424 208.6C183.691 206.646 183.105 204.645 182.666 202.594C182.227 200.494 181.909 198.419 181.714 196.368C181.567 194.269 181.494 192.364 181.494 190.655C181.494 189.19 181.567 187.457 181.714 185.455C181.909 183.453 182.202 181.378 182.593 179.229C183.032 177.081 183.618 174.957 184.351 172.857C185.083 170.758 185.986 168.878 187.061 167.218C188.184 165.558 189.502 164.215 191.016 163.189C192.578 162.164 194.36 161.651 196.362 161.651C197.925 161.651 199.316 161.969 200.537 162.604C201.807 163.238 202.856 164.093 203.687 165.167C204.565 166.192 205.225 167.389 205.664 168.756C206.152 170.123 206.396 171.539 206.396 173.004C206.396 174.908 205.957 176.983 205.078 179.229C204.199 181.476 203.052 183.648 201.636 185.748C200.269 187.848 198.706 189.752 196.948 191.461C195.239 193.121 193.53 194.391 191.821 195.27C191.919 196.148 192.114 197.442 192.407 199.151C192.7 200.812 193.091 202.472 193.579 204.132C194.116 205.792 194.727 207.232 195.41 208.453C196.143 209.674 196.997 210.284 197.974 210.284C198.462 210.284 198.877 210.138 199.219 209.845C199.609 209.552 199.951 209.161 200.244 208.673C200.537 208.185 200.781 207.647 200.977 207.062C201.221 206.476 201.44 205.914 201.636 205.377L202.075 204.352C202.173 204.205 202.222 204.107 202.222 204.059C202.271 204.01 202.319 203.937 202.368 203.839C202.71 203.204 203.027 202.618 203.32 202.081C203.662 201.544 204.126 201.08 204.712 200.689H204.639C204.834 200.494 205.029 200.396 205.225 200.396C205.469 200.348 205.688 200.323 205.884 200.323C206.421 200.323 207.007 200.494 207.642 200.836C208.276 201.178 208.862 201.617 209.399 202.154C209.937 202.643 210.376 203.204 210.718 203.839C211.06 204.425 211.23 205.011 211.23 205.597ZM196.729 173.297C196.729 172.809 196.704 172.296 196.655 171.759C196.606 171.222 196.484 170.758 196.289 170.367C195.605 171.197 194.995 172.198 194.458 173.37C193.97 174.493 193.555 175.689 193.213 176.959C192.871 178.18 192.578 179.425 192.334 180.694C192.139 181.964 191.992 183.136 191.895 184.21C193.164 182.696 194.287 180.987 195.264 179.083C196.24 177.13 196.729 175.201 196.729 173.297Z" fill="black"/>
<path d="M382.247 162.75C382.247 164.801 382.198 167.193 382.101 169.928C382.052 172.613 381.881 175.494 381.588 178.57C381.344 181.646 380.953 184.796 380.416 188.019C379.928 191.241 379.269 194.391 378.438 197.467C377.608 200.543 376.583 203.448 375.362 206.183C374.142 208.917 372.677 211.31 370.968 213.36C369.259 215.411 367.281 217.047 365.035 218.268C362.789 219.439 360.226 220.025 357.345 220.025C354.464 220.025 351.852 219.366 349.508 218.048C347.164 216.681 345.187 214.898 343.575 212.701C342.257 210.943 341.085 208.795 340.06 206.256C339.083 203.668 338.204 200.86 337.423 197.833C336.69 194.806 336.056 191.656 335.519 188.385C334.981 185.113 334.542 181.891 334.2 178.717C333.907 175.543 333.688 172.54 333.541 169.708C333.395 166.827 333.321 164.312 333.321 162.164C333.321 158.551 333.468 154.767 333.761 150.812C334.103 146.856 334.713 142.95 335.592 139.093C336.471 135.187 337.667 131.427 339.181 127.813C340.694 124.2 342.647 120.953 345.04 118.072C345.284 117.779 345.577 117.438 345.919 117.047C346.31 116.656 346.725 116.29 347.164 115.948C347.604 115.558 348.043 115.24 348.482 114.996C348.971 114.703 349.435 114.557 349.874 114.557C350.313 114.557 350.729 114.679 351.119 114.923C351.559 115.167 351.925 115.484 352.218 115.875C353.243 115.289 354.317 114.874 355.44 114.63C356.612 114.386 357.784 114.264 358.956 114.264C362.521 114.264 365.572 115.118 368.111 116.827C370.699 118.487 372.848 120.685 374.557 123.419C376.266 126.153 377.633 129.254 378.658 132.721C379.684 136.188 380.465 139.728 381.002 143.341C381.539 146.954 381.881 150.445 382.027 153.814C382.174 157.184 382.247 160.162 382.247 162.75ZM370.821 165.973C370.821 164.703 370.772 162.774 370.675 160.187C370.626 157.55 370.455 154.669 370.162 151.544C369.869 148.37 369.454 145.123 368.917 141.803C368.429 138.482 367.745 135.479 366.866 132.794C365.987 130.06 364.889 127.838 363.57 126.129C362.301 124.371 360.763 123.492 358.956 123.492C358.224 123.492 357.564 123.834 356.979 124.518C356.393 125.201 355.831 126.08 355.294 127.154C354.757 128.229 354.269 129.4 353.829 130.67C353.39 131.939 352.95 133.16 352.511 134.332C352.071 135.504 351.656 136.554 351.266 137.481C350.875 138.409 350.46 139.068 350.021 139.459C349.874 139.605 349.63 139.703 349.288 139.752C348.995 139.752 348.702 139.752 348.409 139.752C347.579 139.752 346.798 139.605 346.065 139.312C345.235 142.633 344.649 145.953 344.308 149.273C344.015 152.545 343.868 155.865 343.868 159.234C343.868 160.26 343.917 161.798 344.015 163.849C344.112 165.899 344.259 168.243 344.454 170.88C344.649 173.517 344.918 176.349 345.26 179.376C345.602 182.403 346.017 185.431 346.505 188.458C346.993 191.437 347.555 194.317 348.189 197.101C348.873 199.835 349.654 202.276 350.533 204.425C351.412 206.524 352.389 208.209 353.463 209.479C354.537 210.748 355.733 211.383 357.052 211.383C357.784 211.383 358.443 211.188 359.029 210.797C359.615 210.357 360.177 209.918 360.714 209.479C362.179 208.16 363.448 206.427 364.522 204.278C365.597 202.13 366.5 199.762 367.232 197.174C367.965 194.586 368.575 191.876 369.063 189.044C369.552 186.163 369.918 183.331 370.162 180.548C370.406 177.765 370.577 175.128 370.675 172.638C370.772 170.099 370.821 167.877 370.821 165.973ZM394.918 220.172C394.186 220.172 393.38 220.074 392.501 219.879C391.671 219.684 390.865 219.366 390.084 218.927C389.352 218.487 388.717 217.95 388.18 217.315C387.691 216.632 387.447 215.826 387.447 214.898C387.447 213.531 387.496 212.188 387.594 210.87C387.74 209.503 387.887 208.16 388.033 206.842V206.915L388.473 202.008C388.619 200.25 388.741 198.321 388.839 196.222C388.937 194.122 389.01 191.998 389.059 189.85C389.156 187.652 389.229 185.504 389.278 183.404C389.327 181.305 389.352 179.376 389.352 177.618C389.352 176.593 389.327 175.567 389.278 174.542C389.278 173.468 389.278 172.394 389.278 171.319C389.229 170.392 389.205 169.366 389.205 168.243C389.205 167.071 389.205 165.997 389.205 165.021C389.205 163.995 389.327 163.165 389.571 162.53C389.864 161.847 390.646 161.505 391.915 161.505C393.038 161.505 394.21 161.798 395.431 162.384C396.7 162.97 397.579 163.8 398.067 164.874H397.994C398.238 165.411 398.409 166.29 398.507 167.511C398.653 168.683 398.751 169.732 398.8 170.66C399.63 169.391 400.558 168.048 401.583 166.632C402.657 165.216 403.805 163.922 405.025 162.75C406.246 161.529 407.54 160.528 408.907 159.747C410.274 158.966 411.739 158.575 413.302 158.575C415.353 158.575 416.915 159.088 417.989 160.113C419.063 161.139 419.845 162.433 420.333 163.995C420.821 165.509 421.09 167.145 421.139 168.902C421.188 170.611 421.212 172.174 421.212 173.59V174.176C421.212 174.762 421.188 175.348 421.139 175.934C421.139 176.471 421.041 176.983 420.846 177.472C420.699 177.911 420.406 178.277 419.967 178.57C419.576 178.863 419.015 179.01 418.282 179.01C417.501 179.01 416.671 178.912 415.792 178.717C414.913 178.473 414.083 178.131 413.302 177.691C412.569 177.252 411.935 176.715 411.397 176.08C410.86 175.396 410.567 174.615 410.519 173.736C410.519 173.346 410.519 172.955 410.519 172.564C410.519 172.174 410.543 171.783 410.592 171.393C410.592 171.148 410.592 170.855 410.592 170.514C410.641 170.123 410.665 169.757 410.665 169.415C409.103 170.978 407.711 172.906 406.49 175.201C405.318 177.496 404.244 179.938 403.268 182.525C402.34 185.113 401.534 187.726 400.851 190.362C400.167 192.95 399.581 195.294 399.093 197.394V197.613C398.946 199.127 398.849 200.616 398.8 202.081C398.751 203.546 398.702 205.06 398.653 206.622C398.604 208.38 398.531 210.162 398.434 211.969C398.385 213.775 398.263 215.533 398.067 217.242C397.97 218.17 397.677 218.878 397.188 219.366C396.749 219.903 395.992 220.172 394.918 220.172ZM459.957 200.836C459.957 201.324 459.811 201.91 459.518 202.594C459.273 203.229 458.932 203.912 458.492 204.645C458.102 205.328 457.662 206.036 457.174 206.769C456.686 207.501 456.222 208.16 455.782 208.746L454.684 210.284L453.585 212.188L452.633 213.946C452.682 214.923 452.755 215.973 452.853 217.096C452.95 218.219 453.048 219.293 453.146 220.318C453.683 225.348 454.146 230.475 454.537 235.699C454.977 240.924 455.196 246.051 455.196 251.08C455.196 253.766 454.977 256.476 454.537 259.21C454.098 261.993 453.268 264.483 452.047 266.681C450.875 268.927 449.239 270.758 447.14 272.174C445.04 273.59 442.354 274.298 439.083 274.298C436.837 274.298 434.933 273.883 433.37 273.053C431.808 272.223 430.538 271.1 429.562 269.684C428.634 268.316 427.95 266.705 427.511 264.85C427.071 262.994 426.852 261.065 426.852 259.063C426.852 255.108 427.315 251.104 428.243 247.052C429.171 242.999 430.367 238.995 431.832 235.04C433.346 231.085 435.055 227.203 436.959 223.395C438.863 219.635 440.792 216.021 442.745 212.555C442.745 212.457 442.745 212.359 442.745 212.262C442.745 212.115 442.721 211.896 442.672 211.603C442.037 212.774 441.305 213.995 440.475 215.265C439.693 216.485 438.79 217.584 437.765 218.561C436.788 219.537 435.689 220.343 434.469 220.978C433.297 221.612 431.979 221.93 430.514 221.93C428.463 221.93 426.754 221.441 425.387 220.465C424.02 219.488 422.921 218.243 422.091 216.729C421.31 215.216 420.748 213.556 420.406 211.749C420.064 209.942 419.894 208.233 419.894 206.622C419.894 204.767 419.991 202.936 420.187 201.129C420.431 199.322 420.699 197.564 420.992 195.855C421.48 193.121 422.091 190.167 422.823 186.993C423.604 183.771 424.557 180.597 425.68 177.472C426.803 174.298 428.097 171.319 429.562 168.536C431.075 165.753 432.833 163.385 434.835 161.432L435.421 160.919C436.056 160.284 436.788 159.674 437.618 159.088C438.448 158.453 439.303 158.136 440.182 158.136C440.719 158.136 441.183 158.282 441.573 158.575C442.013 158.868 442.379 159.259 442.672 159.747C442.965 160.187 443.185 160.675 443.331 161.212C443.526 161.749 443.624 162.262 443.624 162.75C443.624 163.336 443.404 163.971 442.965 164.654H443.111C446.09 164.654 448.092 166.021 449.117 168.756C449.654 169.244 450.045 169.83 450.289 170.514C450.582 171.197 450.729 171.93 450.729 172.711C450.729 173.102 450.704 173.541 450.655 174.029C450.606 174.469 450.533 174.884 450.436 175.274C450.338 175.714 450.265 176.129 450.216 176.52C450.167 176.91 450.143 177.276 450.143 177.618C450.143 178.741 450.167 180.133 450.216 181.793C450.265 183.453 450.338 185.187 450.436 186.993C450.533 188.8 450.631 190.582 450.729 192.34C450.875 194.049 450.997 195.538 451.095 196.808C451.437 196.368 451.827 195.978 452.267 195.636C452.755 195.294 453.316 195.123 453.951 195.123C454.488 195.123 455.099 195.318 455.782 195.709C456.515 196.1 457.174 196.588 457.76 197.174C458.395 197.76 458.907 198.395 459.298 199.078C459.737 199.713 459.957 200.299 459.957 200.836ZM439.815 170.66C439.815 170.367 439.815 170.05 439.815 169.708C439.864 169.366 439.938 169 440.035 168.609L439.522 169.269C439.132 169.708 438.766 170.123 438.424 170.514C438.082 170.904 437.765 171.319 437.472 171.759C436.202 173.614 435.079 176.031 434.103 179.01C433.175 181.939 432.394 185.04 431.759 188.312C431.124 191.534 430.636 194.708 430.294 197.833C430.001 200.958 429.854 203.644 429.854 205.89C429.854 207.013 429.879 208.136 429.928 209.259C429.977 210.382 430.221 211.48 430.66 212.555C431.344 211.822 431.905 211.041 432.345 210.211C432.784 209.332 433.199 208.429 433.59 207.501C434.664 205.108 435.592 202.325 436.373 199.151C437.154 195.978 437.789 192.706 438.277 189.337C438.766 185.968 439.132 182.672 439.376 179.449C439.62 176.178 439.767 173.248 439.815 170.66ZM445.382 248.883C445.382 245.562 445.309 242.438 445.162 239.508C445.016 236.627 444.796 233.526 444.503 230.206C443.624 232.306 442.721 234.552 441.793 236.944C440.914 239.386 440.133 241.827 439.449 244.269C438.766 246.759 438.204 249.225 437.765 251.666C437.325 254.107 437.105 256.427 437.105 258.624V259.137C437.105 260.26 437.179 261.456 437.325 262.726C437.472 264.044 437.936 265.118 438.717 265.948H439.522C440.499 265.948 441.305 265.606 441.939 264.923C442.623 264.288 443.185 263.458 443.624 262.433C444.063 261.407 444.405 260.26 444.649 258.99C444.894 257.721 445.064 256.451 445.162 255.182C445.26 253.912 445.309 252.716 445.309 251.593C445.357 250.47 445.382 249.566 445.382 248.883ZM493.062 218.048C493.062 219.024 492.818 219.684 492.33 220.025C491.842 220.416 491.158 220.611 490.279 220.611C487.984 220.611 486.324 220.001 485.299 218.78C484.322 217.56 483.59 215.948 483.102 213.946C482.955 213.263 482.809 212.579 482.662 211.896C482.516 211.163 482.394 210.455 482.296 209.771C482.198 209.137 482.101 208.697 482.003 208.453C481.905 208.209 481.808 207.745 481.71 207.062C481.124 208.478 480.392 209.967 479.513 211.529C478.683 213.043 477.706 214.459 476.583 215.777C475.46 217.047 474.19 218.097 472.774 218.927C471.407 219.757 469.894 220.172 468.233 220.172C466.476 220.172 465.011 219.757 463.839 218.927C462.667 218.048 461.739 216.974 461.056 215.704C460.421 214.386 459.957 212.945 459.664 211.383C459.42 209.82 459.298 208.331 459.298 206.915C459.298 203.595 459.615 200.006 460.25 196.148C460.934 192.242 461.861 188.36 463.033 184.503C464.205 180.597 465.572 176.861 467.135 173.297C468.697 169.684 470.406 166.534 472.262 163.849V163.922L472.701 163.263C473.238 162.53 473.849 161.749 474.532 160.919C475.265 160.04 476.119 159.601 477.096 159.601C478.023 159.601 478.829 160.016 479.513 160.846C480.196 161.627 480.685 162.457 480.978 163.336C482.247 163.58 483.272 163.897 484.054 164.288C484.835 164.63 485.445 165.069 485.885 165.606C486.324 166.144 486.617 166.778 486.764 167.511C486.91 168.194 486.983 168.951 486.983 169.781C486.983 170.123 486.983 170.489 486.983 170.88C486.983 171.271 486.959 171.661 486.91 172.052C486.861 172.442 486.837 172.906 486.837 173.443C486.837 173.98 486.837 174.469 486.837 174.908C486.837 175.396 486.91 176.031 487.057 176.812C487.252 177.594 487.447 178.399 487.643 179.229L488.155 181.939C488.399 183.355 488.595 184.967 488.741 186.773C488.937 188.58 489.156 190.387 489.4 192.193C489.596 194.049 489.791 195.855 489.986 197.613C490.182 199.322 490.377 200.909 490.572 202.374L492.33 213.214L492.55 214.459C492.647 215.094 492.745 215.68 492.843 216.217C492.989 216.754 493.062 217.364 493.062 218.048ZM476.29 175.934C476.29 175.836 476.266 175.689 476.217 175.494C476.168 175.25 476.119 175.006 476.07 174.762C474.947 177.154 473.946 179.767 473.067 182.599C472.237 185.382 471.529 188.238 470.943 191.168C470.406 194.049 469.991 196.954 469.698 199.884C469.454 202.765 469.332 205.499 469.332 208.087C469.332 208.331 469.332 208.551 469.332 208.746C469.332 208.941 469.356 209.137 469.405 209.332V209.405C470.577 207.599 471.578 205.23 472.408 202.301C473.287 199.322 474.02 196.222 474.605 192.999C475.191 189.728 475.606 186.578 475.851 183.551C476.144 180.475 476.29 177.936 476.29 175.934ZM509.908 218.634C509.908 219.757 509.566 220.489 508.883 220.831C508.248 221.173 507.467 221.344 506.539 221.344C505.709 221.344 504.879 221.271 504.049 221.124C503.268 221.026 502.511 220.807 501.778 220.465C501.095 220.123 500.484 219.659 499.947 219.073C499.459 218.487 499.117 217.73 498.922 216.803C498.238 213.873 497.848 211.017 497.75 208.233C497.652 205.401 497.604 202.496 497.604 199.518V190.509C497.604 186.407 497.774 182.159 498.116 177.765C498.458 173.321 498.824 169.049 499.215 164.947C499.215 164.801 499.239 164.63 499.288 164.435C499.337 164.239 499.361 164.093 499.361 163.995C499.41 163.458 499.483 162.872 499.581 162.237C499.679 161.603 499.825 161.041 500.021 160.553C500.265 160.016 500.582 159.576 500.973 159.234C501.412 158.893 501.974 158.722 502.657 158.722C503.438 158.722 504.171 158.893 504.854 159.234C505.587 159.527 506.222 159.942 506.759 160.479C507.296 160.968 507.711 161.578 508.004 162.311C508.346 163.043 508.517 163.8 508.517 164.581C508.517 165.411 508.492 166.339 508.443 167.364C508.395 168.341 508.321 169.269 508.224 170.147C508.224 170.392 508.199 170.66 508.15 170.953C508.15 171.246 508.126 171.515 508.077 171.759C508.761 170.392 509.542 168.976 510.421 167.511C511.3 165.997 512.301 164.63 513.424 163.409C514.596 162.14 515.865 161.114 517.232 160.333C518.648 159.552 520.211 159.161 521.92 159.161C523.336 159.161 524.508 159.381 525.436 159.82C526.363 160.26 527.096 160.895 527.633 161.725C528.219 162.506 528.609 163.434 528.805 164.508C529.049 165.582 529.171 166.729 529.171 167.95C529.171 169.61 529.122 171.295 529.024 173.004C528.927 174.664 528.829 176.324 528.731 177.984C528.585 179.693 528.463 181.378 528.365 183.038C528.268 184.698 528.219 186.383 528.219 188.092C528.219 190.143 528.268 192.267 528.365 194.464C528.463 196.612 528.609 198.688 528.805 200.689C529 202.643 529.22 204.425 529.464 206.036C529.708 207.599 529.952 208.819 530.196 209.698C530.392 210.431 530.587 211.285 530.782 212.262C531.026 213.189 531.246 214.166 531.441 215.191C531.686 216.168 531.881 217.12 532.027 218.048C532.174 218.976 532.247 219.806 532.247 220.538C532.247 221.612 531.808 222.296 530.929 222.589C530.099 222.882 529.269 223.028 528.438 223.028C527.608 223.028 526.656 222.955 525.582 222.809C524.557 222.711 523.629 222.442 522.799 222.003C521.773 221.271 521.09 220.245 520.748 218.927C520.455 217.608 520.26 216.314 520.162 215.045L519.942 213.067C519.796 211.896 519.601 210.357 519.356 208.453C519.112 206.549 518.868 204.449 518.624 202.154C518.429 199.859 518.258 197.491 518.111 195.05C517.965 192.56 517.892 190.143 517.892 187.799C517.892 185.699 517.965 183.673 518.111 181.72C518.307 179.767 518.502 177.789 518.697 175.787C518.795 174.762 518.868 173.932 518.917 173.297C518.966 172.662 519.039 171.832 519.137 170.807C518.16 172.369 517.184 174.2 516.207 176.3C515.23 178.399 514.303 180.597 513.424 182.892C512.545 185.138 511.739 187.335 511.007 189.483C510.323 191.632 509.786 193.512 509.396 195.123L508.956 196.734C508.712 197.516 508.492 198.297 508.297 199.078C508.15 199.859 508.077 200.592 508.077 201.275C508.077 202.154 508.126 203.18 508.224 204.352C508.321 205.475 508.443 206.549 508.59 207.574C508.736 208.795 508.907 210.04 509.103 211.31C509.103 211.407 509.151 211.725 509.249 212.262C509.347 212.799 509.444 213.434 509.542 214.166C509.64 214.898 509.713 215.68 509.762 216.51C509.859 217.291 509.908 217.999 509.908 218.634ZM547.115 157.403C547.115 158.233 546.92 158.844 546.529 159.234C546.188 159.576 545.528 159.747 544.552 159.747C544.112 159.747 543.429 159.698 542.501 159.601C541.573 159.454 540.621 159.259 539.645 159.015C538.717 158.771 537.887 158.429 537.154 157.989C536.471 157.55 536.129 157.013 536.129 156.378C536.129 156.183 536.202 155.646 536.349 154.767C536.495 153.839 536.666 152.862 536.861 151.837C537.105 150.812 537.301 149.884 537.447 149.054C537.643 148.224 537.789 147.76 537.887 147.662V147.735C538.131 147.345 538.424 147.101 538.766 147.003C539.107 146.905 539.449 146.856 539.791 146.856C540.23 146.856 540.792 146.93 541.476 147.076C542.208 147.174 542.916 147.345 543.6 147.589C544.332 147.784 544.991 148.053 545.577 148.395C546.163 148.736 546.529 149.103 546.676 149.493C546.822 149.884 546.896 150.421 546.896 151.104C546.944 151.739 546.944 152.325 546.896 152.862C546.896 153.058 546.871 153.302 546.822 153.595C546.822 153.839 546.822 154.034 546.822 154.181C546.822 154.425 546.822 154.669 546.822 154.913C546.871 155.157 546.92 155.401 546.969 155.646C547.018 155.89 547.042 156.158 547.042 156.451C547.091 156.744 547.115 157.062 547.115 157.403ZM549.825 215.777C549.825 216.9 549.557 217.706 549.02 218.194C548.531 218.634 547.726 218.854 546.603 218.854C546.017 218.854 545.357 218.78 544.625 218.634C543.941 218.487 543.258 218.292 542.574 218.048C541.891 217.755 541.256 217.413 540.67 217.022C540.084 216.632 539.645 216.192 539.352 215.704C539.156 215.411 538.985 214.508 538.839 212.994C538.692 211.48 538.57 209.601 538.473 207.354C538.424 205.108 538.351 202.594 538.253 199.811C538.204 197.027 538.155 194.22 538.106 191.388C538.106 188.556 538.106 185.797 538.106 183.111C538.106 180.426 538.106 178.082 538.106 176.08V170.44C538.106 169.952 538.106 169.464 538.106 168.976C538.155 168.487 538.253 168.072 538.399 167.73C538.595 167.34 538.863 167.022 539.205 166.778C539.596 166.534 540.133 166.412 540.816 166.412C542.965 166.412 544.527 167.022 545.504 168.243C546.529 169.415 547.164 171.002 547.408 173.004C547.652 175.982 547.823 178.961 547.921 181.939C548.067 184.869 548.189 187.848 548.287 190.875C548.385 193.609 548.458 196.319 548.507 199.005C548.604 201.642 548.775 204.278 549.02 206.915C549.068 207.452 549.117 207.965 549.166 208.453C549.215 208.941 549.288 209.43 549.386 209.918C549.483 210.895 549.581 211.871 549.679 212.848C549.776 213.775 549.825 214.752 549.825 215.777ZM586.886 210.797C586.886 211.676 586.52 212.481 585.787 213.214C585.055 213.946 584.103 214.605 582.931 215.191C581.808 215.729 580.514 216.217 579.049 216.656C577.633 217.096 576.241 217.462 574.874 217.755C573.507 217.999 572.237 218.194 571.065 218.341C569.942 218.487 569.063 218.561 568.429 218.561C567.208 218.561 565.914 218.463 564.547 218.268C563.18 218.072 561.837 217.779 560.519 217.389C559.2 216.949 557.955 216.412 556.783 215.777C555.611 215.094 554.61 214.288 553.78 213.36V213.434C553.39 213.043 553.023 212.579 552.682 212.042C552.291 211.505 552.096 210.895 552.096 210.211C552.096 209.771 552.267 209.381 552.608 209.039C552.95 208.697 553.341 208.453 553.78 208.307C554.269 207.135 554.781 205.963 555.318 204.791C555.855 203.619 556.393 202.472 556.93 201.349L558.028 198.785C560.616 193.707 563.009 188.678 565.206 183.697C567.452 178.717 569.674 173.565 571.871 168.243L568.941 168.39L565.353 168.609L562.936 168.902C562.252 169 561.593 169.073 560.958 169.122C560.372 169.171 559.762 169.195 559.127 169.195C557.271 169.195 556.344 168.292 556.344 166.485C556.344 165.655 556.441 164.923 556.637 164.288C556.832 163.604 557.198 162.994 557.735 162.457C557.979 162.164 558.614 161.896 559.64 161.651C560.714 161.358 561.959 161.114 563.375 160.919C564.791 160.675 566.305 160.455 567.916 160.26C569.576 160.064 571.163 159.894 572.677 159.747C574.19 159.601 575.533 159.503 576.705 159.454C577.926 159.356 578.78 159.308 579.269 159.308C580.147 159.308 580.953 159.43 581.686 159.674C582.467 159.918 582.857 160.65 582.857 161.871C582.857 162.555 582.687 163.312 582.345 164.142C582.003 164.923 581.637 165.631 581.246 166.266C581.344 166.51 581.393 166.876 581.393 167.364C581.393 167.901 581.197 168.805 580.807 170.074C580.416 171.344 579.879 172.882 579.195 174.688C578.561 176.495 577.804 178.497 576.925 180.694C576.046 182.892 575.118 185.138 574.142 187.433C573.214 189.728 572.262 192.022 571.285 194.317C570.309 196.612 569.381 198.761 568.502 200.763L564.4 210.284C565.23 210.479 566.183 210.577 567.257 210.577C569.454 210.577 571.529 210.162 573.482 209.332C575.484 208.502 577.193 207.672 578.609 206.842C579.439 206.402 580.172 206.036 580.807 205.743C581.441 205.401 581.954 205.23 582.345 205.23C582.979 205.23 583.565 205.426 584.103 205.816C584.688 206.158 585.177 206.622 585.567 207.208C586.007 207.745 586.324 208.331 586.52 208.966C586.764 209.601 586.886 210.211 586.886 210.797ZM618.307 205.597C618.307 207.062 617.892 208.575 617.062 210.138C616.28 211.7 615.255 213.141 613.985 214.459C612.716 215.729 611.251 216.778 609.591 217.608C607.979 218.438 606.368 218.854 604.757 218.854C602.462 218.854 600.484 218.414 598.824 217.535C597.164 216.607 595.724 215.387 594.503 213.873C593.282 212.311 592.281 210.553 591.5 208.6C590.768 206.646 590.182 204.645 589.742 202.594C589.303 200.494 588.985 198.419 588.79 196.368C588.644 194.269 588.57 192.364 588.57 190.655C588.57 189.19 588.644 187.457 588.79 185.455C588.985 183.453 589.278 181.378 589.669 179.229C590.108 177.081 590.694 174.957 591.427 172.857C592.159 170.758 593.062 168.878 594.137 167.218C595.26 165.558 596.578 164.215 598.092 163.189C599.654 162.164 601.437 161.651 603.438 161.651C605.001 161.651 606.393 161.969 607.613 162.604C608.883 163.238 609.933 164.093 610.763 165.167C611.642 166.192 612.301 167.389 612.74 168.756C613.229 170.123 613.473 171.539 613.473 173.004C613.473 174.908 613.033 176.983 612.154 179.229C611.275 181.476 610.128 183.648 608.712 185.748C607.345 187.848 605.782 189.752 604.024 191.461C602.315 193.121 600.606 194.391 598.897 195.27C598.995 196.148 599.19 197.442 599.483 199.151C599.776 200.812 600.167 202.472 600.655 204.132C601.192 205.792 601.803 207.232 602.486 208.453C603.219 209.674 604.073 210.284 605.05 210.284C605.538 210.284 605.953 210.138 606.295 209.845C606.686 209.552 607.027 209.161 607.32 208.673C607.613 208.185 607.857 207.647 608.053 207.062C608.297 206.476 608.517 205.914 608.712 205.377L609.151 204.352C609.249 204.205 609.298 204.107 609.298 204.059C609.347 204.01 609.396 203.937 609.444 203.839C609.786 203.204 610.104 202.618 610.396 202.081C610.738 201.544 611.202 201.08 611.788 200.689H611.715C611.91 200.494 612.105 200.396 612.301 200.396C612.545 200.348 612.765 200.323 612.96 200.323C613.497 200.323 614.083 200.494 614.718 200.836C615.353 201.178 615.938 201.617 616.476 202.154C617.013 202.643 617.452 203.204 617.794 203.839C618.136 204.425 618.307 205.011 618.307 205.597ZM603.805 173.297C603.805 172.809 603.78 172.296 603.731 171.759C603.683 171.222 603.561 170.758 603.365 170.367C602.682 171.197 602.071 172.198 601.534 173.37C601.046 174.493 600.631 175.689 600.289 176.959C599.947 178.18 599.654 179.425 599.41 180.694C599.215 181.964 599.068 183.136 598.971 184.21C600.24 182.696 601.363 180.987 602.34 179.083C603.316 177.13 603.805 175.201 603.805 173.297ZM628.561 220.172C627.828 220.172 627.022 220.074 626.144 219.879C625.313 219.684 624.508 219.366 623.727 218.927C622.994 218.487 622.359 217.95 621.822 217.315C621.334 216.632 621.09 215.826 621.09 214.898C621.09 213.531 621.139 212.188 621.236 210.87C621.383 209.503 621.529 208.16 621.676 206.842V206.915L622.115 202.008C622.262 200.25 622.384 198.321 622.481 196.222C622.579 194.122 622.652 191.998 622.701 189.85C622.799 187.652 622.872 185.504 622.921 183.404C622.97 181.305 622.994 179.376 622.994 177.618C622.994 176.593 622.97 175.567 622.921 174.542C622.921 173.468 622.921 172.394 622.921 171.319C622.872 170.392 622.848 169.366 622.848 168.243C622.848 167.071 622.848 165.997 622.848 165.021C622.848 163.995 622.97 163.165 623.214 162.53C623.507 161.847 624.288 161.505 625.558 161.505C626.681 161.505 627.853 161.798 629.073 162.384C630.343 162.97 631.222 163.8 631.71 164.874H631.637C631.881 165.411 632.052 166.29 632.149 167.511C632.296 168.683 632.394 169.732 632.442 170.66C633.272 169.391 634.2 168.048 635.226 166.632C636.3 165.216 637.447 163.922 638.668 162.75C639.889 161.529 641.183 160.528 642.55 159.747C643.917 158.966 645.382 158.575 646.944 158.575C648.995 158.575 650.558 159.088 651.632 160.113C652.706 161.139 653.487 162.433 653.976 163.995C654.464 165.509 654.732 167.145 654.781 168.902C654.83 170.611 654.854 172.174 654.854 173.59V174.176C654.854 174.762 654.83 175.348 654.781 175.934C654.781 176.471 654.684 176.983 654.488 177.472C654.342 177.911 654.049 178.277 653.609 178.57C653.219 178.863 652.657 179.01 651.925 179.01C651.144 179.01 650.313 178.912 649.435 178.717C648.556 178.473 647.726 178.131 646.944 177.691C646.212 177.252 645.577 176.715 645.04 176.08C644.503 175.396 644.21 174.615 644.161 173.736C644.161 173.346 644.161 172.955 644.161 172.564C644.161 172.174 644.186 171.783 644.234 171.393C644.234 171.148 644.234 170.855 644.234 170.514C644.283 170.123 644.308 169.757 644.308 169.415C642.745 170.978 641.354 172.906 640.133 175.201C638.961 177.496 637.887 179.938 636.91 182.525C635.982 185.113 635.177 187.726 634.493 190.362C633.81 192.95 633.224 195.294 632.735 197.394V197.613C632.589 199.127 632.491 200.616 632.442 202.081C632.394 203.546 632.345 205.06 632.296 206.622C632.247 208.38 632.174 210.162 632.076 211.969C632.027 213.775 631.905 215.533 631.71 217.242C631.612 218.17 631.319 218.878 630.831 219.366C630.392 219.903 629.635 220.172 628.561 220.172Z" fill="black"/>
<path fill-rule="evenodd" clip-rule="evenodd" d="M240.82 25.7073C243.388 20.2723 247.447 15.6786 252.524 12.4616C257.602 9.24457 263.489 7.53656 269.5 7.53656C275.511 7.53656 281.398 9.24457 286.476 12.4616C291.553 15.6786 295.612 20.2723 298.18 25.7073C306.026 25.3595 313.759 27.6809 320.117 32.293C326.475 36.905 331.082 43.5353 333.187 51.1023C335.292 58.6693 334.771 66.7264 331.708 73.959C328.645 81.1916 323.222 87.1729 316.323 90.9271V109.064C316.323 114.496 316.323 119.021 315.84 122.61C315.332 126.404 314.208 129.829 311.453 132.578C308.704 135.333 305.279 136.457 301.485 136.965C297.896 137.448 293.365 137.448 287.939 137.448H251.061C245.635 137.448 241.104 137.448 237.515 136.965C233.721 136.457 230.296 135.333 227.547 132.578C224.792 129.829 223.668 126.404 223.16 122.61C222.677 119.021 222.677 114.496 222.677 109.064V90.9331C215.778 87.1789 210.355 81.1976 207.292 73.965C204.229 66.7324 203.708 58.6754 205.813 51.1084C207.918 43.5414 212.525 36.911 218.883 32.299C225.241 27.687 232.974 25.3595 240.82 25.7073ZM238.101 34.7758C232.31 35.0435 226.779 37.2634 222.41 41.0742C218.04 44.885 215.089 50.0624 214.037 55.7638C212.984 61.4652 213.892 67.3551 216.613 72.4749C219.333 77.5947 223.707 81.643 229.021 83.961C229.829 84.3136 230.516 84.8939 230.999 85.6312C231.482 86.3684 231.739 87.2304 231.74 88.1117V104.219H307.26V88.1117C307.261 87.2304 307.518 86.3684 308.001 85.6312C308.484 84.8939 309.171 84.3136 309.979 83.961C315.292 81.6408 319.663 77.5916 322.382 72.4719C325.101 67.3523 326.008 61.4633 324.956 55.7626C323.904 50.062 320.954 44.885 316.586 41.0736C312.218 37.2621 306.689 35.0405 300.899 34.7698C301.112 36.2399 301.219 37.7403 301.219 39.2708V42.2917C301.219 43.4934 300.741 44.646 299.892 45.4957C299.042 46.3455 297.889 46.8229 296.688 46.8229C295.486 46.8229 294.333 46.3455 293.483 45.4957C292.634 44.646 292.156 43.4934 292.156 42.2917V39.2708C292.159 36.2947 291.576 33.3471 290.438 30.5969C289.301 27.8467 287.632 25.3478 285.528 23.2434C283.423 21.1389 280.924 19.4702 278.174 18.3327C275.424 17.1953 272.476 16.6114 269.5 16.6146C263.491 16.6146 257.729 19.0016 253.48 23.2504C249.231 27.4993 246.844 33.262 246.844 39.2708V42.2917C246.844 43.4934 246.366 44.646 245.517 45.4957C244.667 46.3455 243.514 46.8229 242.313 46.8229C241.111 46.8229 239.958 46.3455 239.108 45.4957C238.259 44.646 237.781 43.4934 237.781 42.2917V39.2708C237.781 37.7403 237.888 36.246 238.101 34.7758ZM307.248 113.281H231.752C231.776 116.725 231.86 119.323 232.144 121.407C232.519 124.193 233.165 125.389 233.957 126.174C234.748 126.96 235.933 127.606 238.718 127.987C241.636 128.373 245.551 128.385 251.375 128.385H287.625C293.449 128.385 297.364 128.373 300.282 127.981C303.068 127.606 304.264 126.96 305.049 126.168C305.835 125.377 306.481 124.193 306.862 121.407C307.14 119.317 307.224 116.719 307.248 113.281Z" fill="black"/>
<path d="M272.458 162.542C272.458 161.58 272.847 160.658 273.538 159.978C274.23 159.299 275.168 158.917 276.146 158.917H293.354C294.332 158.917 295.27 159.299 295.962 159.978C296.653 160.658 297.042 161.58 297.042 162.542C297.042 163.503 296.653 164.425 295.962 165.105C295.27 165.785 294.332 166.167 293.354 166.167H276.146C275.168 166.167 274.23 165.785 273.538 165.105C272.847 164.425 272.458 163.503 272.458 162.542ZM276.146 185.5C275.168 185.5 274.23 185.882 273.538 186.562C272.847 187.242 272.458 188.164 272.458 189.125C272.458 190.086 272.847 191.008 273.538 191.688C274.23 192.368 275.168 192.75 276.146 192.75H293.354C294.332 192.75 295.27 192.368 295.962 191.688C296.653 191.008 297.042 190.086 297.042 189.125C297.042 188.164 296.653 187.242 295.962 186.562C295.27 185.882 294.332 185.5 293.354 185.5H276.146ZM264.002 160.27C264.364 159.938 264.655 159.538 264.856 159.093C265.058 158.649 265.166 158.169 265.175 157.682C265.184 157.195 265.092 156.712 264.907 156.26C264.722 155.809 264.446 155.399 264.095 155.055C263.745 154.71 263.328 154.439 262.869 154.257C262.41 154.074 261.918 153.985 261.423 153.993C260.928 154.002 260.439 154.109 259.987 154.307C259.535 154.505 259.128 154.791 258.79 155.147L251.563 162.252L249.252 159.98C248.553 159.34 247.628 158.991 246.673 159.008C245.718 159.024 244.806 159.405 244.13 160.069C243.455 160.733 243.068 161.629 243.051 162.568C243.034 163.507 243.389 164.416 244.04 165.103L248.957 169.937C249.648 170.616 250.585 170.997 251.563 170.997C252.54 170.997 253.477 170.616 254.168 169.937L264.002 160.27ZM264.002 181.73C264.692 182.41 265.08 183.331 265.08 184.292C265.08 185.252 264.692 186.174 264.002 186.853L254.168 196.52C253.477 197.199 252.54 197.58 251.563 197.58C250.585 197.58 249.648 197.199 248.957 196.52L244.04 191.687C243.678 191.355 243.387 190.955 243.186 190.51C242.984 190.065 242.876 189.585 242.867 189.099C242.858 188.612 242.949 188.128 243.135 187.677C243.32 187.226 243.596 186.816 243.946 186.471C244.297 186.127 244.714 185.856 245.173 185.673C245.632 185.491 246.124 185.402 246.619 185.41C247.114 185.419 247.602 185.525 248.055 185.723C248.507 185.922 248.914 186.207 249.252 186.563L251.563 188.835L258.79 181.73C259.481 181.051 260.419 180.67 261.396 180.67C262.373 180.67 263.31 181.051 264.002 181.73ZM289.637 132.739C289.431 130.001 288.179 127.441 286.133 125.573C284.087 123.705 281.397 122.666 278.604 122.667H261.396C258.675 122.667 256.049 123.653 254.021 125.436C251.993 127.219 250.705 129.675 250.402 132.333H241.729C238.795 132.333 235.982 133.479 233.907 135.519C231.832 137.558 230.667 140.324 230.667 143.208V208.458C230.667 211.343 231.832 214.109 233.907 216.148C235.982 218.188 238.795 219.333 241.729 219.333H298.271C299.724 219.333 301.162 219.052 302.504 218.506C303.847 217.959 305.066 217.158 306.093 216.148C307.121 215.138 307.935 213.939 308.491 212.62C309.047 211.301 309.333 209.886 309.333 208.458V143.208C309.333 141.78 309.047 140.366 308.491 139.047C307.935 137.727 307.121 136.528 306.093 135.519C305.066 134.509 303.847 133.708 302.504 133.161C301.162 132.615 299.724 132.333 298.271 132.333H289.598L289.637 132.739ZM289.637 132.797L289.667 133.542C289.667 133.29 289.654 133.042 289.637 132.797ZM261.396 144.417H278.604C282.439 144.417 285.817 142.498 287.803 139.583H298.271C299.249 139.583 300.187 139.965 300.878 140.645C301.57 141.325 301.958 142.247 301.958 143.208V208.458C301.958 209.42 301.57 210.342 300.878 211.022C300.187 211.701 299.249 212.083 298.271 212.083H241.729C240.751 212.083 239.813 211.701 239.122 211.022C238.43 210.342 238.042 209.42 238.042 208.458V143.208C238.042 142.247 238.43 141.325 239.122 140.645C239.813 139.965 240.751 139.583 241.729 139.583H252.197C254.183 142.498 257.561 144.417 261.396 144.417ZM261.396 129.917H278.604C279.582 129.917 280.52 130.299 281.212 130.978C281.903 131.658 282.292 132.58 282.292 133.542C282.292 134.503 281.903 135.425 281.212 136.105C280.52 136.785 279.582 137.167 278.604 137.167H261.396C260.418 137.167 259.48 136.785 258.788 136.105C258.097 135.425 257.708 134.503 257.708 133.542C257.708 132.58 258.097 131.658 258.788 130.978C259.48 130.299 260.418 129.917 261.396 129.917Z" fill="black"/>
</svg>
