<svg width="145" height="229" viewBox="0 0 145 229" fill="none" xmlns="http://www.w3.org/2000/svg">
<path fill-rule="evenodd" clip-rule="evenodd" d="M43.8202 25.7073C46.3877 20.2723 50.4467 15.6786 55.5243 12.4616C60.6019 9.24457 66.4891 7.53656 72.5 7.53656C78.511 7.53656 84.3982 9.24457 89.4758 12.4616C94.5534 15.6786 98.6124 20.2723 101.18 25.7073C109.026 25.3595 116.759 27.6809 123.117 32.293C129.475 36.905 134.082 43.5353 136.187 51.1023C138.292 58.6693 137.771 66.7264 134.708 73.959C131.645 81.1916 126.222 87.1729 119.323 90.9271V109.064C119.323 114.496 119.323 119.021 118.84 122.61C118.332 126.404 117.208 129.829 114.453 132.578C111.704 135.333 108.279 136.457 104.485 136.965C100.896 137.448 96.3646 137.448 90.9392 137.448H54.0609C48.6354 137.448 44.1042 137.448 40.5154 136.965C36.7213 136.457 33.2957 135.333 30.5467 132.578C27.7917 129.829 26.6679 126.404 26.1604 122.61C25.6771 119.021 25.6771 114.496 25.6771 109.064V90.9331C18.7781 87.1789 13.3548 81.1976 10.2922 73.965C7.22947 66.7324 6.70811 58.6754 8.81313 51.1084C10.9182 43.5414 15.5253 36.911 21.883 32.299C28.2407 27.687 35.9736 25.3595 43.8202 25.7073ZM41.1015 34.7758C35.3099 35.0435 29.7793 37.2634 25.4098 41.0742C21.0404 44.885 18.0892 50.0624 17.0366 55.7638C15.984 61.4652 16.8919 67.3551 19.6126 72.4749C22.3333 77.5947 26.7066 81.643 32.0209 83.961C32.8286 84.3136 33.516 84.8939 33.9988 85.6312C34.4817 86.3684 34.7392 87.2304 34.7396 88.1117V104.219H110.26V88.1117C110.261 87.2304 110.518 86.3684 111.001 85.6312C111.484 84.8939 112.171 84.3136 112.979 83.961C118.292 81.6408 122.663 77.5916 125.382 72.4719C128.101 67.3523 129.008 61.4633 127.956 55.7626C126.904 50.062 123.954 44.885 119.586 41.0736C115.218 37.2621 109.689 35.0405 103.899 34.7698C104.112 36.2399 104.219 37.7403 104.219 39.2708V42.2917C104.219 43.4934 103.741 44.646 102.892 45.4957C102.042 46.3455 100.889 46.8229 99.6875 46.8229C98.4858 46.8229 97.3332 46.3455 96.4835 45.4957C95.6337 44.646 95.1563 43.4934 95.1563 42.2917V39.2708C95.1595 36.2947 94.5756 33.3471 93.4381 30.5969C92.3007 27.8467 90.632 25.3478 88.5275 23.2434C86.423 21.1389 83.9242 19.4702 81.174 18.3327C78.4237 17.1953 75.4762 16.6114 72.5 16.6146C66.4912 16.6146 60.7285 19.0016 56.4796 23.2504C52.2308 27.4993 49.8438 33.262 49.8438 39.2708V42.2917C49.8438 43.4934 49.3664 44.646 48.5166 45.4957C47.6668 46.3455 46.5143 46.8229 45.3125 46.8229C44.1108 46.8229 42.9582 46.3455 42.1084 45.4957C41.2587 44.646 40.7813 43.4934 40.7813 42.2917V39.2708C40.7813 37.7403 40.888 36.246 41.1015 34.7758ZM110.248 113.281H34.7517C34.7759 116.725 34.8604 119.323 35.1444 121.407C35.519 124.193 36.1654 125.389 36.9569 126.174C37.7484 126.96 38.9325 127.606 41.7177 127.987C44.6359 128.373 48.5509 128.385 54.375 128.385H90.625C96.4492 128.385 100.364 128.373 103.282 127.981C106.068 127.606 107.264 126.96 108.049 126.168C108.835 125.377 109.481 124.193 109.862 121.407C110.14 119.317 110.224 116.719 110.248 113.281Z" fill="#FF8800"/>
<path d="M75.4584 162.542C75.4584 161.58 75.8469 160.658 76.5385 159.978C77.23 159.299 78.1679 158.917 79.1459 158.917H96.3542C97.3322 158.917 98.2702 159.299 98.9617 159.978C99.6532 160.658 100.042 161.58 100.042 162.542C100.042 163.503 99.6532 164.425 98.9617 165.105C98.2702 165.785 97.3322 166.167 96.3542 166.167H79.1459C78.1679 166.167 77.23 165.785 76.5385 165.105C75.8469 164.425 75.4584 163.503 75.4584 162.542ZM79.1459 185.5C78.1679 185.5 77.23 185.882 76.5385 186.562C75.8469 187.242 75.4584 188.164 75.4584 189.125C75.4584 190.086 75.8469 191.008 76.5385 191.688C77.23 192.368 78.1679 192.75 79.1459 192.75H96.3542C97.3322 192.75 98.2702 192.368 98.9617 191.688C99.6532 191.008 100.042 190.086 100.042 189.125C100.042 188.164 99.6532 187.242 98.9617 186.562C98.2702 185.882 97.3322 185.5 96.3542 185.5H79.1459ZM67.0017 160.27C67.364 159.938 67.6546 159.538 67.8562 159.093C68.0577 158.649 68.1661 158.169 68.1748 157.682C68.1836 157.195 68.0925 156.712 67.907 156.26C67.7216 155.809 67.4455 155.399 67.0954 155.055C66.7452 154.71 66.3281 154.439 65.8689 154.257C65.4098 154.074 64.918 153.985 64.4228 153.993C63.9277 154.002 63.4394 154.109 62.9871 154.307C62.5348 154.505 62.1277 154.791 61.7901 155.147L54.5626 162.252L52.2517 159.98C51.5527 159.34 50.6282 158.991 49.6728 159.008C48.7175 159.024 47.8061 159.405 47.1304 160.069C46.4548 160.733 46.0678 161.629 46.051 162.568C46.0341 163.507 46.3887 164.416 47.0401 165.103L51.9567 169.937C52.6482 170.616 53.5854 170.997 54.5626 170.997C55.5398 170.997 56.477 170.616 57.1684 169.937L67.0017 160.27ZM67.0017 181.73C67.6923 182.41 68.0802 183.331 68.0802 184.292C68.0802 185.252 67.6923 186.174 67.0017 186.853L57.1684 196.52C56.477 197.199 55.5398 197.58 54.5626 197.58C53.5854 197.58 52.6482 197.199 51.9567 196.52L47.0401 191.687C46.6778 191.355 46.3872 190.955 46.1857 190.51C45.9841 190.065 45.8757 189.585 45.867 189.099C45.8583 188.612 45.9493 188.128 46.1348 187.677C46.3203 187.226 46.5963 186.816 46.9465 186.471C47.2966 186.127 47.7137 185.856 48.1729 185.673C48.6321 185.491 49.1239 185.402 49.619 185.41C50.1141 185.419 50.6024 185.525 51.0547 185.723C51.5071 185.922 51.9142 186.207 52.2517 186.563L54.5626 188.835L61.7901 181.73C62.4815 181.051 63.4187 180.67 64.3959 180.67C65.3731 180.67 66.3103 181.051 67.0017 181.73ZM92.6372 132.739C92.4312 130.001 91.1793 127.441 89.1329 125.573C87.0865 123.705 84.397 122.667 81.6042 122.667H64.3959C61.6748 122.667 59.0493 123.653 57.0211 125.436C54.993 127.219 53.7046 129.675 53.4022 132.333H44.7292C41.7953 132.333 38.9815 133.479 36.9069 135.519C34.8323 137.558 33.6667 140.324 33.6667 143.208V208.458C33.6667 211.343 34.8323 214.109 36.9069 216.148C38.9815 218.188 41.7953 219.333 44.7292 219.333H101.271C102.724 219.333 104.162 219.052 105.504 218.506C106.847 217.959 108.066 217.158 109.093 216.148C110.121 215.138 110.935 213.939 111.491 212.62C112.047 211.301 112.333 209.886 112.333 208.458V143.208C112.333 141.78 112.047 140.366 111.491 139.047C110.935 137.727 110.121 136.528 109.093 135.519C108.066 134.509 106.847 133.708 105.504 133.161C104.162 132.615 102.724 132.333 101.271 132.333H92.5979L92.6372 132.739ZM92.6372 132.797L92.6667 133.542C92.6667 133.29 92.6536 133.042 92.6372 132.797ZM64.3959 144.417H81.6042C85.4392 144.417 88.817 142.498 90.8033 139.583H101.271C102.249 139.583 103.187 139.965 103.878 140.645C104.57 141.325 104.958 142.247 104.958 143.208V208.458C104.958 209.42 104.57 210.342 103.878 211.022C103.187 211.701 102.249 212.083 101.271 212.083H44.7292C43.7513 212.083 42.8133 211.701 42.1218 211.022C41.4303 210.342 41.0417 209.42 41.0417 208.458V143.208C41.0417 142.247 41.4303 141.325 42.1218 140.645C42.8133 139.965 43.7513 139.583 44.7292 139.583H55.1968C57.1832 142.498 60.5609 144.417 64.3959 144.417ZM64.3959 129.917H81.6042C82.5822 129.917 83.5202 130.299 84.2117 130.978C84.9032 131.658 85.2917 132.58 85.2917 133.542C85.2917 134.503 84.9032 135.425 84.2117 136.105C83.5202 136.785 82.5822 137.167 81.6042 137.167H64.3959C63.4179 137.167 62.48 136.785 61.7885 136.105C61.0969 135.425 60.7084 134.503 60.7084 133.542C60.7084 132.58 61.0969 131.658 61.7885 130.978C62.48 130.299 63.4179 129.917 64.3959 129.917Z" fill="#FF8800"/>
</svg>
