<svg width="48" height="48" viewBox="0 0 48 48" fill="none" xmlns="http://www.w3.org/2000/svg">
<path d="M17.6999 33.65L23.9999 29.85L30.2999 33.7L28.6499 26.5L34.1999 21.7L26.8999 21.05L23.9999 14.25L21.0999 21L13.7999 21.65L19.3499 26.5L17.6999 33.65ZM23.9999 34.55L15.6999 39.55C15.3333 39.7833 14.9499 39.8833 14.5499 39.85C14.1499 39.8167 13.7999 39.6833 13.4999 39.45C13.1999 39.2167 12.9666 38.9253 12.7999 38.576C12.6333 38.2267 12.5999 37.8347 12.6999 37.4L14.8999 27.95L7.54993 21.6C7.21659 21.3 7.00859 20.958 6.92593 20.574C6.84326 20.19 6.86793 19.8153 6.99993 19.45C7.13193 19.0847 7.33193 18.7847 7.59993 18.55C7.86793 18.3153 8.23459 18.1653 8.69993 18.1L18.3999 17.25L22.1499 8.34999C22.3166 7.94999 22.5753 7.64999 22.9259 7.44999C23.2766 7.24999 23.6346 7.14999 23.9999 7.14999C24.3653 7.14999 24.7233 7.24999 25.0739 7.44999C25.4246 7.64999 25.6833 7.94999 25.8499 8.34999L29.5999 17.25L39.2999 18.1C39.7666 18.1667 40.1333 18.3167 40.3999 18.55C40.6666 18.7833 40.8666 19.0833 40.9999 19.45C41.1333 19.8167 41.1586 20.192 41.0759 20.576C40.9933 20.96 40.7846 21.3013 40.4499 21.6L33.0999 27.95L35.2999 37.4C35.3999 37.8333 35.3666 38.2253 35.1999 38.576C35.0333 38.9267 34.7999 39.218 34.4999 39.45C34.1999 39.682 33.8499 39.8153 33.4499 39.85C33.0499 39.8847 32.6666 39.7847 32.2999 39.55L23.9999 34.55Z" fill="#FFCD29"/>
</svg>
